<?xml version="1.0" encoding="utf-8"?>
<!-- Generator: Adobe Illustrator 16.0.0, SVG Export Plug-In . SVG Version: 6.00 Build 0)  -->
<!DOCTYPE svg PUBLIC "-//W3C//DTD SVG 1.1//EN" "http://www.w3.org/Graphics/SVG/1.1/DTD/svg11.dtd">
<svg version="1.1" id="Capa_1" xmlns="http://www.w3.org/2000/svg" xmlns:xlink="http://www.w3.org/1999/xlink" x="0px" y="0px"
	 width="52px" height="52px" viewBox="0 0 52 52" enable-background="new 0 0 52 52" xml:space="preserve">
<g>
	<path fill="#959595" d="M21.008,13.104c3.624-3.623,7.504-5.503,10.619-3.289c5.102,3.627,3.291,8.409,3.291,9.959
		c0,3.682,6.805,2.525,6.805-0.173c0-10.896-4.369-13.317-6.51-14.565c-8.375-4.881-16.92,2.346-17.879,3.304
		C15.339,10.333,19.116,14.994,21.008,13.104z"/>
	<path fill="#959595" d="M32.214,24h-9.265C8.975,24,9,24.481,9,35.227v0.334C9,49.014,8.975,50,22.949,50h9.265
		C42.979,50,43,49.534,43,35.561v-0.334C43,24.463,43,24,32.214,24z M28.895,42.764l0.012,2.957
		c0.004,1.105-0.887,2.006-1.992,2.012l-0.584,0.004c-1.105,0.008-2.004-0.883-2.01-1.987l-0.015-2.985
		c-0.006-1.104-1.015-1.94-1.848-2.666c-2.27-1.979-1.364-7.682,4.1-7.682c5.877,0,7.025,5.988,4.229,7.82
		C29.861,40.842,28.891,41.659,28.895,42.764z"/>
</g>
</svg>
